<svg width="60" height="60" viewBox="0 0 60 60" fill="none" xmlns="http://www.w3.org/2000/svg">
<path d="M30 30C27.25 30 24.8958 29.0208 22.9375 27.0625C20.9792 25.1042 20 22.75 20 20C20 17.25 20.9792 14.8958 22.9375 12.9375C24.8958 10.9792 27.25 10 30 10C32.75 10 35.1042 10.9792 37.0625 12.9375C39.0208 14.8958 40 17.25 40 20C40 22.75 39.0208 25.1042 37.0625 27.0625C35.1042 29.0208 32.75 30 30 30ZM10 50V43C10 41.5833 10.365 40.2817 11.095 39.095C11.825 37.9083 12.7933 37.0017 14 36.375C16.5833 35.0833 19.2083 34.115 21.875 33.47C24.5417 32.825 27.25 32.5017 30 32.5C32.75 32.4983 35.4583 32.8217 38.125 33.47C40.7917 34.1183 43.4167 35.0867 46 36.375C47.2083 37 48.1775 37.9067 48.9075 39.095C49.6375 40.2833 50.0017 41.585 50 43V50H10Z" fill="#0F77BB"/>
</svg>
