<svg width="60" height="60" viewBox="0 0 60 60" fill="none" xmlns="http://www.w3.org/2000/svg">
<path d="M30 5C26.7169 5 23.466 5.64664 20.4329 6.90301C17.3998 8.15938 14.6438 10.0009 12.3223 12.3223C7.63392 17.0107 5 23.3696 5 30C5 36.6304 7.63392 42.9892 12.3223 47.6777C14.6438 49.9991 17.3998 51.8406 20.4329 53.097C23.466 54.3533 26.7169 55 30 55C36.6304 55 42.9892 52.3661 47.6777 47.6777C52.3661 42.9892 55 36.6304 55 30C55 26.7169 54.3533 23.466 53.097 20.4329C51.8406 17.3998 49.9991 14.6438 47.6777 12.3223C45.3562 10.0009 42.6002 8.15938 39.5671 6.90301C36.5339 5.64664 33.283 5 30 5ZM40.5 40.5L27.5 32.5V17.5H31.25V30.5L42.5 37.25L40.5 40.5Z" fill="#0F77BB"/>
</svg>
