<svg width="60" height="60" viewBox="0 0 60 60" fill="none" xmlns="http://www.w3.org/2000/svg">
<path d="M15.7389 5C16.3773 5 16.9896 5.2536 17.441 5.70502C17.8924 6.15643 18.146 6.76868 18.146 7.40708C18.146 8.2977 17.6646 9.08 16.9425 9.4892V11.0177H18.146C20.3804 11.0177 22.5233 11.9053 24.1032 13.4853C25.6832 15.0652 26.5708 17.2081 26.5708 19.4425H27.7743C28.0935 19.4425 28.3997 19.5693 28.6254 19.795C28.8511 20.0207 28.9779 20.3268 28.9779 20.646V24.2566C28.9779 24.5758 28.8511 24.8819 28.6254 25.1077C28.3997 25.3334 28.0935 25.4602 27.7743 25.4602H26.5708V26.6637C26.5708 27.3021 26.3172 27.9143 25.8658 28.3658C25.4144 28.8172 24.8021 29.0708 24.1637 29.0708H7.31416C6.67576 29.0708 6.06351 28.8172 5.6121 28.3658C5.16068 27.9143 4.90708 27.3021 4.90708 26.6637V25.4602H3.70354C3.38434 25.4602 3.07822 25.3334 2.85251 25.1077C2.6268 24.8819 2.5 24.5758 2.5 24.2566V20.646C2.5 20.3268 2.6268 20.0207 2.85251 19.795C3.07822 19.5693 3.38434 19.4425 3.70354 19.4425H4.90708C4.90708 17.2081 5.79469 15.0652 7.37464 13.4853C8.95459 11.9053 11.0975 11.0177 13.3319 11.0177H14.5354V9.4892C13.8133 9.08 13.3319 8.2977 13.3319 7.40708C13.3319 6.76868 13.5855 6.15643 14.0369 5.70502C14.4883 5.2536 15.1005 5 15.7389 5ZM10.323 18.2389C9.52501 18.2389 8.7597 18.5559 8.19543 19.1202C7.63116 19.6845 7.31416 20.4498 7.31416 21.2478C7.31416 22.0458 7.63116 22.8111 8.19543 23.3754C8.7597 23.9396 9.52501 24.2566 10.323 24.2566C11.121 24.2566 11.8863 23.9396 12.4506 23.3754C13.0149 22.8111 13.3319 22.0458 13.3319 21.2478C13.3319 20.4498 13.0149 19.6845 12.4506 19.1202C11.8863 18.5559 11.121 18.2389 10.323 18.2389ZM21.1549 18.2389C20.3569 18.2389 19.5916 18.5559 19.0273 19.1202C18.463 19.6845 18.146 20.4498 18.146 21.2478C18.146 22.0458 18.463 22.8111 19.0273 23.3754C19.5916 23.9396 20.3569 24.2566 21.1549 24.2566C21.9529 24.2566 22.7182 23.9396 23.2824 23.3754C23.8467 22.8111 24.1637 22.0458 24.1637 21.2478C24.1637 20.4498 23.8467 19.6845 23.2824 19.1202C22.7182 18.5559 21.9529 18.2389 21.1549 18.2389Z" fill="#0F77BB"/>
</svg>
