<svg width="52" height="56" viewBox="0 0 52 56" fill="none" xmlns="http://www.w3.org/2000/svg">
<path d="M39.2575 19.81L47.2125 27.765C48.5033 29.0387 49.5295 30.5551 50.2319 32.227C50.9342 33.8989 51.299 35.6932 51.305 37.5066C51.3111 39.32 50.9584 41.1168 50.2673 42.7933C49.5761 44.4698 48.5601 45.9931 47.2778 47.2754C45.9956 48.5577 44.4723 49.5737 42.7957 50.2648C41.1192 50.956 39.3225 51.3087 37.5091 51.3026C35.6956 51.2965 33.9013 50.9318 32.2295 50.2294C30.5576 49.5271 29.0411 48.5009 27.7675 47.21L25.1175 44.56C24.7592 44.2143 24.4733 43.8006 24.2765 43.3432C24.0798 42.8858 23.9761 42.3938 23.9715 41.8958C23.967 41.3979 24.0616 40.9041 24.25 40.4431C24.4383 39.9822 24.7166 39.5634 25.0685 39.2111C25.4204 38.8588 25.839 38.5802 26.2998 38.3914C26.7605 38.2027 27.2543 38.1075 27.7522 38.1116C28.2501 38.1157 28.7422 38.2189 29.1998 38.4152C29.6575 38.6116 30.0714 38.897 30.4175 39.255L33.0725 41.9075C34.2465 43.071 35.8336 43.722 37.4864 43.7182C39.1393 43.7143 40.7233 43.0559 41.8919 41.887C43.0605 40.7181 43.7185 39.1339 43.7219 37.481C43.7253 35.8281 43.0738 34.2412 41.91 33.0675L33.955 25.1125C33.0952 24.2523 32.003 23.6617 30.8125 23.413C29.622 23.1644 28.3847 23.2684 27.2525 23.7125C26.8491 23.8725 26.4708 24.0359 26.1175 24.2025L24.9575 24.745C23.4075 25.445 22.215 25.745 20.6975 24.23C18.5175 22.05 19.0825 20.0375 21.74 18.205C24.3872 16.3834 27.5889 15.5466 30.789 15.8398C33.989 16.133 36.9853 17.5377 39.2575 19.81ZM24.2325 4.78503L26.8825 7.43503C27.5659 8.14196 27.9443 9.08905 27.9363 10.0723C27.9282 11.0555 27.5342 11.9963 26.8393 12.6919C26.1443 13.3875 25.204 13.7823 24.2207 13.7913C23.2375 13.8003 22.2901 13.4228 21.5825 12.74L18.93 10.09C18.3536 9.49293 17.6641 9.0166 16.9016 8.68883C16.1392 8.36106 15.3191 8.18841 14.4893 8.18097C13.6594 8.17352 12.8364 8.33143 12.0682 8.64546C11.3 8.9595 10.602 9.42339 10.015 10.01C9.42804 10.5967 8.96376 11.2944 8.64929 12.0624C8.33482 12.8304 8.17645 13.6534 8.18342 14.4833C8.1904 15.3131 8.36258 16.1333 8.68992 16.8959C9.01725 17.6585 9.4932 18.3483 10.09 18.925L18.045 26.88C18.9048 27.7402 19.9969 28.3309 21.1875 28.5795C22.378 28.8282 23.6152 28.7241 24.7475 28.28C25.1508 28.12 25.5291 27.9567 25.8825 27.79L27.0425 27.2475C28.5925 26.5475 29.7875 26.2475 31.3025 27.7625C33.4825 29.9425 32.9175 31.955 30.26 33.7875C27.6127 35.6091 24.411 36.446 21.211 36.1528C18.0109 35.8596 15.0146 34.4549 12.7425 32.1825L4.78747 24.2275C3.49662 22.9539 2.47046 21.4374 1.76808 19.7656C1.0657 18.0937 0.700977 16.2994 0.694901 14.486C0.688826 12.6725 1.04152 10.8758 1.73268 9.19927C2.42385 7.52272 3.43982 5.99945 4.72211 4.71716C6.0044 3.43488 7.52767 2.4189 9.20422 1.72774C10.8808 1.03658 12.6775 0.683882 14.4909 0.689958C16.3043 0.696033 18.0986 1.06076 19.7705 1.76314C21.4424 2.46552 22.9588 3.49418 24.2325 4.78503Z" fill="#0F77BB"/>
</svg>
