<svg width="60" height="60" viewBox="0 0 60 60" fill="none" xmlns="http://www.w3.org/2000/svg">
<path d="M30.0001 38.75C27.6794 38.75 25.4538 37.8281 23.8129 36.1872C22.172 34.5462 21.2501 32.3206 21.2501 30C21.2501 27.6794 22.172 25.4538 23.8129 23.8128C25.4538 22.1719 27.6794 21.25 30.0001 21.25C32.3207 21.25 34.5463 22.1719 36.1873 23.8128C37.8282 25.4538 38.7501 27.6794 38.7501 30C38.7501 32.3206 37.8282 34.5462 36.1873 36.1872C34.5463 37.8281 32.3207 38.75 30.0001 38.75ZM48.5751 32.425C48.6751 31.625 48.7501 30.825 48.7501 30C48.7501 29.175 48.6751 28.35 48.5751 27.5L53.8501 23.425C54.3251 23.05 54.4501 22.375 54.1501 21.825L49.1501 13.175C48.8501 12.625 48.1751 12.4 47.6251 12.625L41.4001 15.125C40.1001 14.15 38.7501 13.3 37.1751 12.675L36.2501 6.05C36.1993 5.75555 36.0459 5.48857 35.8171 5.29638C35.5883 5.10419 35.2989 4.9992 35.0001 5H25.0001C24.3751 5 23.8501 5.45 23.7501 6.05L22.8251 12.675C21.2501 13.3 19.9001 14.15 18.6001 15.125L12.3751 12.625C11.8251 12.4 11.1501 12.625 10.8501 13.175L5.85009 21.825C5.52509 22.375 5.67509 23.05 6.15009 23.425L11.4251 27.5C11.3251 28.35 11.2501 29.175 11.2501 30C11.2501 30.825 11.3251 31.625 11.4251 32.425L6.15009 36.575C5.67509 36.95 5.52509 37.625 5.85009 38.175L10.8501 46.825C11.1501 47.375 11.8251 47.575 12.3751 47.375L18.6001 44.85C19.9001 45.85 21.2501 46.7 22.8251 47.325L23.7501 53.95C23.8501 54.55 24.3751 55 25.0001 55H35.0001C35.6251 55 36.1501 54.55 36.2501 53.95L37.1751 47.325C38.7501 46.675 40.1001 45.85 41.4001 44.85L47.6251 47.375C48.1751 47.575 48.8501 47.375 49.1501 46.825L54.1501 38.175C54.4501 37.625 54.3251 36.95 53.8501 36.575L48.5751 32.425Z" fill="#0F77BB"/>
</svg>
