<svg width="60" height="60" viewBox="0 0 60 60" fill="none" xmlns="http://www.w3.org/2000/svg">
<path fill-rule="evenodd" clip-rule="evenodd" d="M8.66 8.66C5 12.325 5 18.215 5 30C5 41.785 5 47.6775 8.66 51.3375C12.325 55 18.215 55 30 55C41.785 55 47.6775 55 51.3375 51.3375C55 47.68 55 41.785 55 30C55 18.215 55 12.3225 51.3375 8.66C47.68 5 41.785 5 30 5C18.215 5 12.3225 5 8.66 8.66ZM34.375 25C34.375 26.035 35.215 26.875 36.25 26.875H37.975L32.9425 31.9075C32.8844 31.9657 32.8155 32.0119 32.7395 32.0434C32.6636 32.0749 32.5822 32.0911 32.5 32.0911C32.4178 32.0911 32.3364 32.0749 32.2605 32.0434C32.1845 32.0119 32.1156 31.9657 32.0575 31.9075L28.0925 27.9425C27.2721 27.1227 26.1598 26.6622 25 26.6622C23.8402 26.6622 22.7279 27.1227 21.9075 27.9425L16.175 33.675C15.9908 33.8467 15.843 34.0537 15.7405 34.2837C15.6381 34.5137 15.583 34.7619 15.5785 35.0137C15.5741 35.2655 15.6204 35.5155 15.7147 35.749C15.809 35.9825 15.9494 36.1946 16.1274 36.3726C16.3055 36.5506 16.5175 36.691 16.751 36.7853C16.9845 36.8796 17.2346 36.9259 17.4863 36.9215C17.7381 36.917 17.9863 36.8619 18.2163 36.7595C18.4463 36.657 18.6533 36.5092 18.825 36.325L24.5575 30.5925C24.6156 30.5343 24.6845 30.4881 24.7605 30.4566C24.8364 30.4251 24.9178 30.4089 25 30.4089C25.0822 30.4089 25.1636 30.4251 25.2395 30.4566C25.3155 30.4881 25.3844 30.5343 25.4425 30.5925L29.4075 34.5575C30.2279 35.3773 31.3402 35.8378 32.5 35.8378C33.6598 35.8378 34.7721 35.3773 35.5925 34.5575L40.625 29.5275V31.25C40.625 31.7473 40.8225 32.2242 41.1742 32.5758C41.5258 32.9275 42.0027 33.125 42.5 33.125C42.9973 33.125 43.4742 32.9275 43.8258 32.5758C44.1775 32.2242 44.375 31.7473 44.375 31.25V25C44.375 24.5027 44.1775 24.0258 43.8258 23.6742C43.4742 23.3225 42.9973 23.125 42.5 23.125H36.25C35.7527 23.125 35.2758 23.3225 34.9242 23.6742C34.5725 24.0258 34.375 24.5027 34.375 25Z" fill="#0F77BB"/>
</svg>
