<svg width="60" height="60" viewBox="0 0 60 60" fill="none" xmlns="http://www.w3.org/2000/svg">
<path d="M15 32.5H5C3.5 32.5 2.5 33.5 2.5 35V55C2.5 56.5 3.5 57.5 5 57.5H15C16.5 57.5 17.5 56.5 17.5 55V35C17.5 33.5 16.5 32.5 15 32.5ZM55 22.5H45C43.5 22.5 42.5 23.5 42.5 25V55C42.5 56.5 43.5 57.5 45 57.5H55C56.5 57.5 57.5 56.5 57.5 55V25C57.5 23.5 56.5 22.5 55 22.5ZM35 2.5H25C23.5 2.5 22.5 3.5 22.5 5V55C22.5 56.5 23.5 57.5 25 57.5H35C36.5 57.5 37.5 56.5 37.5 55V5C37.5 3.5 36.5 2.5 35 2.5Z" fill="#0F77BB"/>
</svg>
